<svg width="138" height="50" viewBox="0 0 138 50" fill="none" xmlns="http://www.w3.org/2000/svg">
<g clip-path="url(#clip0_39090_1286)">
<path d="M83.3037 15.8302L80.0626 27.9144L76.8124 15.8302H73.3384L70.0996 27.9144L66.8471 15.8302H63.3525L68.0074 33.0186H71.7967L75.0903 20.6008L78.3542 33.0186H82.1434L86.812 15.8302H83.3037Z" fill="#FF1D04"/>
<path d="M91.8208 15.8302L84.7266 33.0186H88.3856L89.973 28.8854H97.0878L98.6752 33.0186H102.298L95.2149 15.8302H91.8231H91.8208ZM95.9253 25.9952H91.1059L93.511 19.9634L95.9253 25.9952Z" fill="#FF1D04"/>
<path d="M114.157 27.8276L107.282 15.8302H103.26V33.0186H106.622V21.0212L113.497 33.0186H117.521V15.8302H114.157V27.8276Z" fill="#FF1D04"/>
<path d="M128.923 23.5231V26.3905H132.774V29.8474C132.372 30.0324 131.924 30.1764 131.442 30.2746C130.828 30.4003 130.113 30.4642 129.321 30.4642C127.349 30.4642 125.865 29.9639 124.905 28.9769C123.942 27.9853 123.453 26.459 123.453 24.4416C123.453 22.4241 123.942 20.8865 124.905 19.8949C125.865 18.9079 127.352 18.4075 129.321 18.4075C130.335 18.4075 131.317 18.572 132.235 18.8941C133.155 19.2186 134.037 19.7098 134.859 20.3541L135.73 21.0373V17.3017L135.462 17.1463C134.56 16.6208 133.56 16.2164 132.493 15.9445C131.431 15.6749 130.298 15.5401 129.124 15.5401C126.271 15.5401 123.996 16.3329 122.363 17.8957C120.726 19.4653 119.894 21.6679 119.894 24.4416C119.894 27.2153 120.726 29.4064 122.363 30.976C123.996 32.5388 126.271 33.3316 129.124 33.3316C130.412 33.3316 131.641 33.1694 132.781 32.8518C133.925 32.532 134.99 32.0544 135.942 31.4284L136.184 31.2685V23.5231H128.925H128.923Z" fill="#FF1D04"/>
<path d="M64.8762 38.3154C64.0631 37.671 62.8594 37.342 61.2948 37.342H56.9482V49.9928H59.1432V45.0486H61.2971C62.8616 45.0486 64.0676 44.7219 64.8785 44.0798C65.703 43.4287 66.121 42.4554 66.121 41.1919C66.121 39.9284 65.703 38.9711 64.8785 38.3154H64.8762ZM63.1791 42.7729C62.7429 43.1454 62.1102 43.3327 61.2948 43.3327H59.1409V39.0533H61.2948C62.1102 39.0533 62.7429 39.243 63.1791 39.6131C63.6131 39.9832 63.8232 40.4996 63.8232 41.1873C63.8232 41.875 63.6131 42.4005 63.1791 42.7707V42.7729Z" fill="#1033B4"/>
<path d="M77.2947 42.3868H70.9176V37.342H68.7227V49.9928H70.9176V44.1324H77.2947V49.9928H79.4874V37.342H77.2947V42.3868Z" fill="#1033B4"/>
<path d="M86.8762 37.342L81.511 49.9928H83.8384L85.0832 46.8353H91.0103L92.2552 49.9928H94.5552L89.1991 37.342H86.8739H86.8762ZM90.2954 45.1057H85.7822L88.0342 39.6085L90.2954 45.1057Z" fill="#1033B4"/>
<path d="M104.527 44.7059C104.271 44.4363 104.006 44.2261 103.737 44.0753C104.319 43.8559 104.785 43.5269 105.123 43.0928C105.546 42.5536 105.761 41.8682 105.761 41.0571C105.761 39.8187 105.349 38.8774 104.539 38.2582C103.741 37.6505 102.531 37.342 100.937 37.342H96.5901V49.9928H98.7851V44.7927H100.628C101.325 44.7927 101.878 44.9206 102.271 45.1697C102.668 45.421 103.09 45.9534 103.527 46.7485L105.324 49.9928H107.707L105.687 46.376C105.304 45.6746 104.915 45.1126 104.529 44.7082L104.527 44.7059ZM98.7828 39.0556H100.937C101.784 39.0556 102.426 39.227 102.848 39.5651C103.264 39.8987 103.465 40.3876 103.465 41.0594C103.465 41.7311 103.262 42.2223 102.846 42.5605C102.426 42.9032 101.782 43.0791 100.937 43.0791H98.7828V39.0556Z" fill="#1033B4"/>
<path d="M116.505 45.4416L113.131 37.342H110.087V49.9928H112.227V39.8736L115.466 47.6258H117.553L120.79 39.8736V49.9928H122.939V37.342H119.897L116.505 45.4416Z" fill="#1033B4"/>
<path d="M132.644 37.342H130.319L124.954 49.9928H127.281L128.526 46.8353H134.453L135.698 49.9928H137.998L132.642 37.342H132.644ZM133.736 45.1057H129.223L131.475 39.6085L133.736 45.1057Z" fill="#1033B4"/>
<path d="M26.8424 34.887L25.3303 32.9335C25.1065 32.6639 24.8735 32.3943 24.6314 32.1224C17.0141 35.3485 9.37853 37.695 4.58203 36.9113C-0.148239 36.1391 0.774517 32.4948 4.58203 28.6267V28.5673C2.80504 30.4248 1.49628 32.191 0.737972 33.788C-0.920248 37.286 0.228629 39.5868 3.97447 40.2677C8.05835 41.0079 14.6433 39.6736 21.8494 36.9524L25.9447 35.2663C26.413 35.0675 26.7693 34.9167 26.8424 34.887Z" fill="#95D1D2"/>
<path d="M50.8571 7.55335C47.801 7.05298 43.4636 7.64931 38.5529 9.07272V9.9318C42.2371 8.9402 45.4279 8.69573 47.568 9.19381C49.4889 9.64163 50.3569 10.7041 50.2518 12.2554C50.2221 12.6941 50.1262 13.1191 49.9709 13.5486C49.9549 13.5966 49.9343 13.6446 49.9161 13.6925C49.8909 13.7588 49.8635 13.8251 49.8361 13.889C49.6397 14.3597 49.3633 14.8601 48.991 15.3901C48.9842 15.3993 48.9796 15.4084 48.9727 15.4198C48.9682 15.4267 48.9636 15.4335 48.959 15.4404C47.8124 17.1357 45.9167 19.0252 43.5024 20.9764C42.8035 21.5407 42.0589 22.1096 41.2664 22.6808C40.355 23.3366 39.4574 23.9397 38.4889 24.5566L38.1052 26.7957C37.9636 27.6205 38.7676 28.2374 39.4985 27.9815C40.2066 27.5383 40.9055 27.0905 41.4993 26.6815C42.4107 26.0554 43.2809 25.4271 44.11 24.8034C44.3864 24.5955 44.6582 24.3876 44.9254 24.1796C45.3342 23.8621 45.7317 23.5468 46.12 23.2315C46.1702 23.1903 46.2227 23.1492 46.273 23.1081C46.3918 23.0098 46.5082 22.9116 46.627 22.8156C46.7229 22.7357 46.8234 22.6534 46.9171 22.5735C47.0062 22.4981 47.093 22.4227 47.182 22.3473C47.3008 22.2444 47.4219 22.1439 47.5384 22.0411C47.6252 21.9657 47.7074 21.8926 47.7919 21.8172C47.9084 21.7167 48.0249 21.6138 48.1368 21.5133C48.2327 21.4288 48.3241 21.342 48.4177 21.2574C48.5159 21.1683 48.6164 21.0792 48.7124 20.9901C48.8014 20.9079 48.8882 20.8256 48.9773 20.7411C49.0732 20.6497 49.1737 20.5583 49.2674 20.4669C49.3496 20.3892 49.4273 20.3115 49.5072 20.2338C49.6031 20.1402 49.7014 20.0465 49.795 19.9528C49.8772 19.8706 49.9572 19.7883 50.0394 19.7083C50.1262 19.6192 50.2175 19.5301 50.3021 19.4433C50.3797 19.3633 50.4551 19.2834 50.5305 19.2034C50.615 19.1143 50.7018 19.0252 50.784 18.9384C50.8571 18.8607 50.9256 18.783 50.9964 18.7053C51.0786 18.6162 51.1609 18.5271 51.2408 18.438C51.3093 18.3626 51.3733 18.2872 51.4395 18.2118C51.5195 18.1227 51.5994 18.0313 51.6771 17.9422C51.741 17.8691 51.8004 17.7937 51.8621 17.7206C51.9374 17.6315 52.0128 17.5424 52.0859 17.4533C52.1499 17.3756 52.2092 17.2979 52.2709 17.2225C52.3371 17.138 52.4057 17.0557 52.4696 16.9712C52.5313 16.8935 52.5861 16.8158 52.6455 16.7381C52.7072 16.6559 52.7688 16.5759 52.8282 16.4937C52.883 16.4183 52.9333 16.3452 52.9858 16.272C53.0475 16.1852 53.1114 16.0961 53.1708 16.0093C54.3151 14.3391 54.957 12.8152 55.0278 11.5083C55.142 9.38802 53.7007 8.02173 50.8571 7.55792V7.55335Z" fill="#95D1D2"/>
<path d="M22.4299 49.9891H22.6081C22.5784 49.9891 22.5487 49.9822 22.519 49.9799C22.4893 49.9799 22.4619 49.9891 22.4299 49.9891Z" fill="#FF1D04"/>
<path d="M20.9132 48.2904V48.0756C20.9041 48.279 20.9041 48.4846 20.8972 48.6879C21.0228 49.4236 21.6601 49.9857 22.4321 49.9857C22.4595 49.9857 22.4869 49.9766 22.5143 49.9766C21.6235 49.9263 20.9132 49.1952 20.9132 48.2904Z" fill="#FF1D04"/>
<path d="M16.0345 25.2561C16.1533 25.3224 16.2264 25.3658 16.3474 25.4343C16.4479 25.4915 16.5484 25.5486 16.6512 25.608C16.7677 25.6742 16.8865 25.7474 17.003 25.8182C17.108 25.8822 17.2131 25.9416 17.3204 26.0078C17.4415 26.0832 17.5648 26.1632 17.6882 26.2409C17.7955 26.3094 17.9006 26.3734 18.0102 26.4442C18.1381 26.5265 18.2683 26.6179 18.3985 26.7047C18.5059 26.7755 18.6109 26.8441 18.7183 26.9172C18.853 27.0086 18.9878 27.1068 19.1248 27.2028C19.2322 27.2782 19.335 27.3513 19.4423 27.429C19.5862 27.5341 19.7324 27.646 19.8786 27.7557C19.9791 27.8311 20.0773 27.9042 20.1801 27.9819C20.3491 28.1121 20.5204 28.2515 20.6917 28.3886C20.7694 28.4502 20.847 28.5097 20.9247 28.5736C21.1759 28.7793 21.4249 28.9895 21.6784 29.2088C21.6441 29.2294 21.6099 29.2476 21.5756 29.2682H21.5733C21.5596 29.2751 21.5459 29.2842 21.5322 29.291C21.5254 29.2956 21.5185 29.2979 21.5117 29.3025C21.5117 29.3025 21.5117 29.3025 21.5094 29.3025C21.4934 29.3116 21.4797 29.3185 21.4637 29.3276C21.3906 29.3687 21.3198 29.4099 21.2467 29.451C21.1005 29.5309 20.9544 29.6132 20.8082 29.6909C20.662 29.7708 20.5135 29.8485 20.3674 29.9239C20.3628 29.9262 20.3559 29.9285 20.3514 29.9331C20.3514 29.9331 20.3468 29.9331 20.3445 29.9354C20.3377 29.9399 20.3308 29.9422 20.324 29.9468C20.1892 30.0153 20.0567 30.0839 19.922 30.1524C19.7735 30.2278 19.6228 30.3009 19.472 30.374C19.3213 30.4471 19.1705 30.518 19.0198 30.5888C18.869 30.6596 18.716 30.7282 18.563 30.7967C18.4099 30.8653 18.2569 30.9315 18.1016 30.9978C17.9463 31.064 17.7932 31.128 17.6379 31.192C17.4826 31.256 17.3273 31.3176 17.1697 31.3793C17.0121 31.441 16.8568 31.5004 16.6992 31.5598C16.5416 31.6192 16.384 31.6763 16.2241 31.7335C16.0642 31.7906 15.9066 31.8454 15.7467 31.9003C15.5869 31.9551 15.427 32.0076 15.2648 32.0602C15.1049 32.1127 14.9427 32.163 14.7806 32.2133C14.6184 32.2635 14.4562 32.3115 14.2941 32.3595C14.1319 32.4075 13.9675 32.4532 13.803 32.4989C13.6386 32.5446 13.4741 32.588 13.3097 32.6291C13.1452 32.6725 12.9785 32.7136 12.814 32.7525C12.6473 32.7936 12.4805 32.8324 12.3138 32.869C12.1471 32.9056 11.9803 32.9421 11.8113 32.9787C11.6423 33.0129 11.4756 33.0472 11.3065 33.0792C11.1375 33.1112 10.9685 33.1432 10.7995 33.1729C10.6305 33.2026 10.4592 33.2323 10.2901 33.2597C10.1188 33.2871 9.94753 33.3145 9.77851 33.3374C9.60721 33.3625 9.4359 33.3854 9.26232 33.4082C9.09101 33.4311 8.91743 33.4516 8.74384 33.4722C8.57025 33.4927 8.39666 33.511 8.22307 33.527C8.04949 33.5453 7.8759 33.559 7.70003 33.575C7.52416 33.5887 7.35057 33.6024 7.1747 33.6138C7.15871 33.6138 7.14272 33.6138 7.12673 33.6161C7.09019 33.6184 7.05364 33.623 7.0171 33.6253C6.76128 33.6435 6.50319 33.6618 6.24737 33.6778C6.00983 33.6938 5.77001 33.671 5.54845 33.5819C5.384 33.5179 5.22869 33.4242 5.09393 33.3077C5.07794 33.294 5.06423 33.2757 5.04596 33.2597C5.01855 33.2346 4.99343 33.2071 4.9683 33.1774C4.94318 33.15 4.91806 33.1249 4.89522 33.0952C4.8541 33.0426 4.81527 32.9878 4.78101 32.9284C4.77416 32.917 4.76731 32.9078 4.76046 32.8987C4.76046 32.8964 4.76046 32.8941 4.75589 32.8919C4.71706 32.8233 4.68508 32.7502 4.65767 32.6748C4.65539 32.6679 4.65082 32.6611 4.64854 32.6542C4.64854 32.6542 4.64854 32.6497 4.64854 32.6474C4.64854 32.6405 4.64397 32.636 4.64169 32.6291C4.61428 32.556 4.5823 32.4692 4.5823 32.3938V28.6262C0.77479 32.492 -0.147966 36.1362 4.5823 36.9108C9.3788 37.6944 17.0144 35.3457 24.6317 32.1219C24.8738 32.3938 25.1045 32.6634 25.3306 32.933C25.8833 33.5956 26.3858 34.249 26.8426 34.8865C27.0551 35.1835 27.2561 35.4759 27.4479 35.7638C27.5164 35.8643 27.5758 35.9626 27.6398 36.0608C27.7608 36.2459 27.8842 36.4332 27.9961 36.6137C28.0669 36.7257 28.1286 36.8354 28.1971 36.945C28.2953 37.1073 28.3981 37.2718 28.4894 37.4294C28.558 37.5482 28.6196 37.6579 28.6859 37.7744C28.7635 37.9115 28.8458 38.0486 28.9166 38.1811C29.1838 38.6678 29.9078 38.5741 30.0494 38.0372L31.4587 32.6634L32.6167 28.2492H32.5413C32.571 28.2332 32.6007 28.2149 32.6304 28.1989L33.3339 25.5166L33.6834 24.1846L33.9894 23.0171L34.782 19.9966L16.1967 24.116C15.6622 24.2348 15.5526 24.9911 16.0322 25.2561H16.0345Z" fill="#009BDE"/>
<path d="M36.8581 0H22.5668C21.6303 0 20.8697 0.76083 20.8697 1.69759V16.0094H6.28152C5.34506 16.0094 4.58447 16.7702 4.58447 17.707V32.4004C4.58447 32.4826 4.62559 32.5832 4.65299 32.6586C4.68269 32.7431 4.71923 32.8253 4.76491 32.903C4.85171 33.0561 4.96591 33.1955 5.09838 33.312C5.23086 33.4285 5.38617 33.5222 5.55291 33.5862C5.77675 33.673 6.01429 33.6958 6.25183 33.6821C6.50764 33.6661 6.76574 33.6479 7.02155 33.6296C11.6079 33.2869 16.2171 32.0782 20.3467 29.9397C20.7396 29.7363 21.1301 29.5238 21.5138 29.3045C21.5687 29.2725 21.6258 29.2405 21.6806 29.2085C21.4293 28.9892 21.1781 28.7767 20.9268 28.5734C20.8492 28.5094 20.7715 28.45 20.6939 28.3883C20.5226 28.2512 20.3513 28.1119 20.1822 27.9816C20.0817 27.9039 19.9812 27.8308 19.8808 27.7554C19.7346 27.6458 19.5907 27.5338 19.4445 27.4287C19.3371 27.351 19.2321 27.2779 19.127 27.2025C18.9923 27.1066 18.8552 27.0083 18.7205 26.9169C18.6131 26.8438 18.508 26.7753 18.4007 26.7044C18.2705 26.6176 18.1403 26.5285 18.0124 26.444C17.9028 26.3731 17.7977 26.3092 17.6903 26.2406C17.567 26.1629 17.4437 26.083 17.3226 26.0076C17.2153 25.9413 17.1125 25.8819 17.0051 25.8179C16.8864 25.7471 16.7676 25.674 16.6534 25.6077C16.5506 25.5483 16.4501 25.4912 16.3496 25.4341C16.2286 25.3656 16.1555 25.3221 16.0367 25.2559C15.557 24.9909 15.6644 24.2346 16.2011 24.1158L34.7865 19.9963L38.5551 16.0094V1.6953C38.5551 0.758545 37.7968 0 36.8604 0H36.8581Z" fill="#1033B4"/>
<path d="M44.3772 10.1633C46.8691 10.2547 47.7964 11.7695 45.8893 14.2759C45.7773 14.4221 45.6563 14.5729 45.5284 14.726C45.2497 15.0573 44.7998 15.5074 44.2699 16.0055C42.952 17.2461 41.1225 18.7952 40.106 19.6337C39.6287 20.0267 39.2998 20.5682 39.1696 21.1736L38.4844 24.5574C39.4505 23.9405 40.3504 23.3373 41.2618 22.6816C42.0543 22.1104 42.8012 21.5392 43.4979 20.9771C45.9144 19.0259 47.8079 17.1364 48.9545 15.4411C48.959 15.4343 48.9636 15.4274 48.9682 15.4206C48.975 15.4114 48.9796 15.4023 48.9864 15.3909C49.3427 14.8585 49.6237 14.3673 49.8315 13.8898C49.8612 13.8235 49.8864 13.7572 49.9115 13.6933C49.9297 13.6453 49.948 13.5973 49.9663 13.5493C50.1216 13.1198 50.2175 12.6971 50.2472 12.2562C50.3523 10.7025 49.4844 9.64008 47.5635 9.19455C45.4233 8.69647 42.2325 8.94094 38.5483 9.93254V10.7299C40.5903 10.289 42.8949 10.1107 44.3704 10.1656L44.3772 10.1633Z" fill="#009BDE"/>
<path d="M53.1707 16.0047C53.1113 16.0915 53.0474 16.1806 52.9857 16.2674C52.9332 16.3405 52.8829 16.4159 52.8281 16.4891C52.7687 16.569 52.707 16.6513 52.6454 16.7335C52.586 16.8112 52.5289 16.8889 52.4695 16.9666C52.4055 17.0488 52.337 17.1334 52.2708 17.2179C52.2091 17.2956 52.1497 17.371 52.0858 17.4487C52.0127 17.5378 51.9373 17.6269 51.8619 17.716C51.8003 17.7891 51.7409 17.8622 51.6769 17.9376C51.5993 18.0267 51.5193 18.1181 51.4394 18.2072C51.3732 18.2826 51.3092 18.358 51.2407 18.4334C51.1607 18.5225 51.0785 18.6116 50.9963 18.7007C50.9255 18.7784 50.8547 18.8561 50.7839 18.9338C50.7016 19.0229 50.6149 19.112 50.5303 19.1988C50.4527 19.2788 50.3796 19.3587 50.3019 19.4387C50.2151 19.5278 50.1261 19.6169 50.0393 19.7037C49.957 19.786 49.8794 19.8682 49.7949 19.9482C49.7012 20.0419 49.603 20.1356 49.5071 20.2292C49.4271 20.3069 49.3495 20.3846 49.2673 20.4623C49.1713 20.5537 49.0731 20.6451 48.9772 20.7365C48.8881 20.8187 48.8036 20.901 48.7122 20.9855C48.6163 21.0746 48.5158 21.1637 48.4176 21.2528C48.3239 21.3373 48.2326 21.4242 48.1367 21.5087C48.0247 21.6092 47.906 21.7121 47.7918 21.8126C47.7073 21.888 47.625 21.9611 47.5382 22.0365C47.4218 22.137 47.3007 22.2398 47.1819 22.3426C47.0928 22.418 47.0061 22.4934 46.917 22.5688C46.821 22.6488 46.7228 22.7311 46.6269 22.811C46.5104 22.9093 46.3939 23.0075 46.2729 23.1035C46.2226 23.1446 46.1701 23.1857 46.1198 23.2269C45.7316 23.5422 45.3364 23.8575 44.9253 24.175C44.6581 24.383 44.3862 24.5909 44.1099 24.7988C43.2808 25.4225 42.4105 26.0486 41.4992 26.6769C40.8437 27.1293 40.2909 27.5017 39.7359 27.8627C39.6583 27.9129 39.5783 27.9495 39.4984 27.9769C38.7675 28.2328 37.9635 27.6159 38.1051 26.7911L38.4888 24.552L39.174 21.1683C39.3042 20.5628 39.6331 20.0213 40.1105 19.6283C41.1269 18.7898 42.9541 17.2407 44.2743 16.0001H38.5574L34.7887 19.987L32.6234 28.2419L30.0561 38.0299C29.9191 38.5486 29.1813 38.6445 28.9232 38.1739C28.8433 38.0276 28.7793 37.918 28.6925 37.7672C28.6263 37.6529 28.5646 37.541 28.4961 37.4222C28.4048 37.2645 28.302 37.1 28.2038 36.9378C28.1352 36.8258 28.0736 36.7184 28.0028 36.6065C27.8908 36.426 27.7675 36.2386 27.6464 36.0536C27.5802 35.9531 27.5208 35.8571 27.4546 35.7566C27.2627 35.4687 27.0594 35.1762 26.8493 34.8792L20.9199 37.3308V48.2817C20.9199 49.1865 21.6303 49.9176 22.521 49.9679C22.521 49.9679 22.5256 49.9679 22.5279 49.9679C22.5576 49.9679 36.8649 49.977 36.8649 49.977C37.8013 49.977 38.5619 49.2162 38.5619 48.2794V33.6866H52.8692C53.8057 33.6866 54.5663 32.9257 54.5663 31.989V17.3824C54.5663 16.617 53.945 15.9955 53.1798 15.9955L53.1707 16.0047Z" fill="#FF1D04"/>
</g>
<defs>
<clipPath id="clip0_39090_1286">
<rect width="138" height="50" fill="white"/>
</clipPath>
</defs>
</svg>
